<svg width="14" height="15" viewBox="0 0 14 15" fill="none" xmlns="http://www.w3.org/2000/svg">
<path d="M10.8997 1.24731C10.6355 1.24731 10.422 1.46147 10.422 1.72569C10.422 1.9899 10.6329 2.20406 10.8971 2.20406C11.941 2.20406 12.7869 3.05316 12.7869 4.09688V4.60164H0.961186V4.09688C0.961186 3.05316 1.80719 2.20406 2.85102 2.20406C3.11524 2.20406 3.32785 1.9899 3.32785 1.72569C3.32785 1.46147 3.1138 1.24731 2.84958 1.24731C1.27822 1.24731 0 2.52565 0 4.0969V12.15C0 13.7212 1.27658 15.0001 2.84794 15.0001H10.901C12.4724 15.0001 13.7481 13.7212 13.7481 12.15V4.09688C13.7481 2.52565 12.471 1.24731 10.8997 1.24731ZM10.901 14.0389H2.84791C1.80407 14.0389 0.961172 13.1937 0.961172 12.15V5.56284H12.7869V12.15C12.7869 13.1937 11.9448 14.0389 10.901 14.0389Z" fill="#6A1B9A"/>
<path d="M5.36512 2.19859H8.35492C8.61914 2.19859 8.83329 1.98949 8.83329 1.72527C8.83329 1.46106 8.61914 1.25195 8.35492 1.25195H5.36512C5.10091 1.25195 4.88675 1.46106 4.88675 1.72527C4.88675 1.98949 5.10091 2.19859 5.36512 2.19859Z" fill="#6A1B9A"/>
<path d="M4.09217 3.72017C4.35639 3.72017 4.57277 3.50601 4.57277 3.2418V0.478372C4.57277 0.214158 4.35639 0 4.09217 0C3.82796 0 3.61157 0.214158 3.61157 0.478372V3.24178C3.61157 3.50601 3.82796 3.72017 4.09217 3.72017Z" fill="#6A1B9A"/>
<path d="M9.65544 3.72017C9.91965 3.72017 10.136 3.50601 10.136 3.2418V0.478372C10.136 0.214158 9.91965 0 9.65544 0C9.39122 0 9.17484 0.214158 9.17484 0.478372V3.24178C9.17484 3.50601 9.39122 3.72017 9.65544 3.72017Z" fill="#6A1B9A"/>
</svg>
