<svg width="16" height="15" viewBox="0 0 16 15" fill="none" xmlns="http://www.w3.org/2000/svg">
<path d="M8.24798 0C4.11251 0 0.748047 3.36439 0.748047 7.49978C0.748047 11.6355 4.11251 15 8.24798 15C12.3834 15 15.7478 11.6354 15.7478 7.49978C15.7478 3.36439 12.3834 0 8.24798 0ZM8.24798 13.9249C4.70533 13.9249 1.82316 11.0426 1.82316 7.49978C1.82316 3.95721 4.70533 1.07511 8.24798 1.07511C11.7906 1.07511 14.6726 3.95721 14.6726 7.49978C14.6726 11.0426 11.7906 13.9249 8.24798 13.9249Z" fill="#6A1B9A"/>
<path d="M12.1045 7.37433H8.58V3.52169C8.58 3.22481 8.33939 2.98413 8.04244 2.98413C7.74557 2.98413 7.50488 3.22481 7.50488 3.52169V7.91188C7.50488 8.20876 7.74557 8.44944 8.04244 8.44944H12.1045C12.4015 8.44944 12.6421 8.20876 12.6421 7.91188C12.6421 7.61501 12.4014 7.37433 12.1045 7.37433Z" fill="#6A1B9A"/>
</svg>
