<svg width="16" height="20" viewBox="0 0 16 20" fill="none" xmlns="http://www.w3.org/2000/svg">
<path d="M15.7898 2.40001H11.7898V1.60001C11.7898 0.716453 11.0734 0 10.1898 0H6.18984C5.30624 0 4.58983 0.716453 4.58983 1.60001V2.40001H0.589844V3.20002H1.41409L2.21486 18.4C2.21486 19.2836 2.93127 20 3.81487 20H12.6148C13.4984 20 14.2148 19.2836 14.2148 18.4L15.0016 3.20002H15.7899V2.40001H15.7898ZM5.38983 1.60001C5.38983 1.15861 5.74925 0.800005 6.18984 0.800005H10.1898C10.6312 0.800005 10.9898 1.15861 10.9898 1.60001V2.40001H5.38983V1.60001ZM13.4164 18.3586L13.4148 18.3789V18.4C13.4148 18.8406 13.0562 19.2 12.6148 19.2H3.81483C3.37424 19.2 3.01482 18.8406 3.01482 18.4V18.3789L3.01406 18.3578L2.21486 3.20002H14.2008L13.4164 18.3586Z" fill="white"/>
<path d="M8.5898 4.7998H7.78979V17.5998H8.5898V4.7998Z" fill="white"/>
<path d="M6.20774 17.5743L5.38901 4.79932L4.59058 4.85005L5.40934 17.625L6.20774 17.5743Z" fill="white"/>
<path d="M11.7954 4.82487L10.997 4.7749L10.1899 17.5749L10.9884 17.6248L11.7954 4.82487Z" fill="white"/>
</svg>
