<svg width="23" height="17" viewBox="0 0 23 17" fill="none" xmlns="http://www.w3.org/2000/svg">
<path d="M3.80143 15.4263C3.82519 15.5238 3.86829 15.6157 3.92817 15.6963C3.98806 15.7769 4.06351 15.8447 4.15008 15.8958C4.23665 15.9468 4.33258 15.98 4.4322 15.9933C4.53182 16.0067 4.63311 16 4.73009 15.9736C9.15698 14.7492 13.8337 14.7492 18.2606 15.9736C18.3576 16 18.4589 16.0067 18.5585 15.9933C18.6581 15.98 18.7541 15.9468 18.8406 15.8958C18.9272 15.8447 19.0027 15.7769 19.0625 15.6963C19.1224 15.6157 19.1655 15.5238 19.1893 15.4263L21.5574 5.38066C21.5899 5.2462 21.5841 5.10534 21.5407 4.97397C21.4973 4.84261 21.4181 4.72597 21.3118 4.63722C21.2056 4.54848 21.0766 4.49116 20.9395 4.47173C20.8024 4.45231 20.6626 4.47155 20.5358 4.52729L15.8368 6.61434C15.6666 6.68921 15.4746 6.69842 15.2979 6.64017C15.1213 6.58193 14.9725 6.46036 14.8803 6.29896L12.1501 1.38281C12.0858 1.26683 11.9916 1.17015 11.8773 1.10283C11.763 1.03551 11.6327 1 11.5 1C11.3673 1 11.237 1.03551 11.1227 1.10283C11.0084 1.17015 10.9142 1.26683 10.8499 1.38281L8.11969 6.29896C8.02752 6.46036 7.87874 6.58193 7.70208 6.64017C7.52543 6.69842 7.33343 6.68921 7.16317 6.61434L2.46416 4.52729C2.33742 4.47155 2.19759 4.45231 2.06047 4.47173C1.92336 4.49116 1.79441 4.54848 1.68817 4.63722C1.58194 4.72597 1.50266 4.84261 1.45927 4.97397C1.41589 5.10534 1.41013 5.2462 1.44264 5.38066L3.80143 15.4263Z" stroke="white" stroke-width="2" stroke-linecap="round" stroke-linejoin="round"/>
</svg>
