<svg width="14" height="15" viewBox="0 0 14 15" fill="none" xmlns="http://www.w3.org/2000/svg">
<path d="M8.38857 0.5C5.28857 0.5 2.77714 3.01143 2.77714 6.11143C2.77714 7.45143 3.24571 8.68 4.02857 9.64571L0.171429 13.5029C-0.0571429 13.7314 -0.0571429 14.1 0.171429 14.3286C0.4 14.5571 0.768571 14.5571 0.997143 14.3286L4.85429 10.4714C5.82 11.2543 7.04857 11.7229 8.38857 11.7229C11.4886 11.7229 14 9.21143 14 6.11143C14 3.01143 11.4857 0.5 8.38857 0.5ZM8.38857 10.5571C5.93429 10.5571 3.94286 8.56571 3.94286 6.11143C3.94286 3.65714 5.93429 1.66571 8.38857 1.66571C10.8429 1.66571 12.8343 3.65714 12.8343 6.11143C12.8343 8.56571 10.8429 10.5571 8.38857 10.5571Z" fill="#6A1B9A"/>
</svg>
