<svg width="27" height="27" viewBox="0 0 27 27" fill="none" xmlns="http://www.w3.org/2000/svg">
<path d="M13.8674 9.77979C13.1004 9.70404 12.3287 9.86721 11.658 10.247C10.9873 10.6267 10.4504 11.2045 10.1208 11.9012C9.79115 12.5979 9.68492 13.3795 9.81664 14.1389C9.94836 14.8983 10.3116 15.5984 10.8566 16.1434C11.4016 16.6884 12.1017 17.0516 12.8611 17.1833C13.6205 17.315 14.4021 17.2088 15.0988 16.8792C15.7955 16.5496 16.3732 16.0127 16.753 15.342C17.1328 14.6713 17.2959 13.8996 17.2202 13.1326C17.1338 12.2728 16.7528 11.4692 16.1418 10.8582C15.5307 10.2471 14.7272 9.86615 13.8674 9.77979ZM22.8685 13.5C22.8662 13.9063 22.8363 14.3121 22.7792 14.7144L25.4199 16.7856C25.5349 16.881 25.6124 17.0139 25.6386 17.161C25.6648 17.308 25.638 17.4596 25.5631 17.5888L23.0648 21.9112C22.9889 22.0391 22.8703 22.1362 22.7299 22.1852C22.5895 22.2343 22.4363 22.2322 22.2973 22.1793L19.6746 21.1232C19.53 21.0657 19.3733 21.0449 19.2187 21.0627C19.064 21.0805 18.9162 21.1365 18.7885 21.2255C18.3883 21.5011 17.9677 21.746 17.5303 21.9579C17.3929 22.0248 17.2739 22.1244 17.1841 22.2481C17.0942 22.3718 17.0362 22.5156 17.0152 22.6671L16.6221 25.4644C16.5962 25.6121 16.5199 25.7463 16.4061 25.844C16.2923 25.9417 16.1482 25.9968 15.9982 26H11.0017C10.8543 25.9974 10.7121 25.9447 10.5986 25.8506C10.4851 25.7564 10.407 25.6264 10.3773 25.4819L9.98479 22.6887C9.96274 22.5356 9.90322 22.3903 9.81151 22.2658C9.71979 22.1413 9.59873 22.0413 9.45909 21.9749C9.02229 21.764 8.60311 21.5185 8.20558 21.2407C8.0783 21.1521 7.93098 21.0966 7.77691 21.0792C7.62283 21.0617 7.46684 21.0829 7.32299 21.1408L4.70091 22.1963C4.56195 22.2492 4.40878 22.2514 4.26838 22.2024C4.12797 22.1535 4.00934 22.0566 3.93338 21.9287L1.43514 17.6063C1.36003 17.4772 1.33319 17.3256 1.35939 17.1785C1.3856 17.0314 1.46315 16.8984 1.57824 16.8032L3.81014 15.0508C3.93241 14.9538 4.02851 14.8277 4.08971 14.6841C4.15092 14.5404 4.17528 14.3838 4.1606 14.2284C4.13958 13.9848 4.12672 13.7418 4.12672 13.4982C4.12672 13.2547 4.13899 13.0152 4.1606 12.7769C4.17368 12.6224 4.14812 12.4671 4.08622 12.3249C4.02433 12.1828 3.92805 12.0583 3.80605 11.9626L1.57532 10.2103C1.4621 10.1145 1.38618 9.98201 1.36087 9.83591C1.33556 9.68981 1.36247 9.53946 1.43689 9.41121L3.93514 5.08879C4.011 4.96086 4.1296 4.86382 4.27001 4.81477C4.41042 4.76572 4.56364 4.76781 4.70266 4.82068L7.32532 5.87675C7.46995 5.93434 7.62661 5.95514 7.78125 5.9373C7.9359 5.91946 8.0837 5.86354 8.21142 5.77453C8.61168 5.4989 9.03228 5.25404 9.4696 5.04206C9.60709 4.97523 9.726 4.87559 9.81585 4.75191C9.9057 4.62824 9.96372 4.48435 9.98479 4.33294L10.3779 1.53563C10.4037 1.3879 10.48 1.25372 10.5938 1.15602C10.7076 1.05832 10.8518 1.00317 11.0017 1H15.9982C16.1457 1.00255 16.2879 1.05526 16.4014 1.14944C16.5149 1.24361 16.5929 1.37365 16.6226 1.51811L17.0152 4.31133C17.0372 4.46441 17.0967 4.60967 17.1884 4.73419C17.2802 4.85872 17.4012 4.95866 17.5409 5.02512C17.9777 5.23596 18.3968 5.48149 18.7944 5.75935C18.9216 5.8479 19.069 5.9034 19.223 5.92084C19.3771 5.93828 19.5331 5.9171 19.677 5.85923L22.299 4.80374C22.438 4.75082 22.5912 4.74864 22.7316 4.79758C22.872 4.84652 22.9906 4.94344 23.0666 5.07126L25.5648 9.39369C25.6399 9.52283 25.6668 9.67444 25.6406 9.82151C25.6143 9.96859 25.5368 10.1016 25.4217 10.1968L23.1898 11.9492C23.067 12.0459 22.9703 12.1719 22.9086 12.3155C22.8469 12.4591 22.8221 12.6159 22.8364 12.7716C22.8557 13.0134 22.8685 13.2564 22.8685 13.5Z" stroke="#6A1B9A" stroke-width="1.5" stroke-linecap="round" stroke-linejoin="round"/>
</svg>
