<svg width="28" height="22" viewBox="0 0 28 22" fill="none" xmlns="http://www.w3.org/2000/svg">
<path d="M14.294 8.02383C13.6804 7.96323 13.0631 8.09377 12.5265 8.39758C11.99 8.70139 11.5604 9.16362 11.2967 9.72098C11.033 10.2783 10.948 10.9036 11.0534 11.5111C11.1588 12.1186 11.4494 12.6787 11.8854 13.1147C12.3214 13.5507 12.8815 13.8413 13.489 13.9467C14.0965 14.052 14.7217 13.9671 15.2791 13.7034C15.8365 13.4397 16.2987 13.0101 16.6025 12.4736C16.9063 11.937 17.0368 11.3197 16.9762 10.7061C16.9072 10.0182 16.6024 9.37539 16.1135 8.88655C15.6247 8.39771 14.9819 8.09292 14.294 8.02383ZM21.4949 11C21.493 11.3251 21.4691 11.6496 21.4234 11.9715L23.5361 13.6285C23.628 13.7048 23.69 13.8112 23.711 13.9288C23.732 14.0464 23.7105 14.1677 23.6505 14.271L21.6519 17.729C21.5912 17.8313 21.4964 17.9089 21.384 17.9482C21.2717 17.9874 21.1491 17.9857 21.0379 17.9435L18.9398 17.0986C18.8241 17.0525 18.6988 17.0359 18.5751 17.0502C18.4513 17.0644 18.3331 17.1092 18.2309 17.1804C17.9107 17.4009 17.5742 17.5968 17.2244 17.7664C17.1144 17.8198 17.0193 17.8995 16.9474 17.9985C16.8755 18.0974 16.8291 18.2125 16.8122 18.3336L16.4977 20.5715C16.4771 20.6897 16.416 20.797 16.325 20.8752C16.234 20.9533 16.1186 20.9975 15.9987 21H12.0015C11.8835 20.998 11.7697 20.9558 11.6789 20.8805C11.5881 20.8051 11.5257 20.7011 11.5019 20.5855L11.1879 18.3509C11.1703 18.2285 11.1227 18.1123 11.0493 18.0126C10.9759 17.913 10.8791 17.8331 10.7674 17.7799C10.4179 17.6112 10.0826 17.4148 9.76456 17.1925C9.66274 17.1217 9.54488 17.0773 9.42162 17.0633C9.29836 17.0494 9.17357 17.0663 9.05849 17.1126L6.96082 17.957C6.84966 17.9993 6.72712 18.0011 6.6148 17.9619C6.50248 17.9228 6.40757 17.8452 6.3468 17.743L4.34821 14.285C4.28812 14.1817 4.26665 14.0605 4.28761 13.9428C4.30858 13.8251 4.37062 13.7187 4.46269 13.6425L6.24821 12.2407C6.34603 12.163 6.42291 12.0622 6.47187 11.9473C6.52083 11.8324 6.54032 11.7071 6.52858 11.5827C6.51176 11.3879 6.50148 11.1935 6.50148 10.9986C6.50148 10.8037 6.51129 10.6121 6.52858 10.4215C6.53904 10.2979 6.51859 10.1737 6.46908 10.06C6.41956 9.94624 6.34253 9.84663 6.24494 9.77009L4.46036 8.36822C4.36978 8.29163 4.30904 8.18561 4.28879 8.06873C4.26854 7.95185 4.29007 7.83157 4.34961 7.72897L6.34821 4.27103C6.4089 4.16869 6.50377 4.09106 6.6161 4.05182C6.72843 4.01258 6.85101 4.01425 6.96223 4.05654L9.06036 4.9014C9.17606 4.94747 9.30138 4.96411 9.4251 4.94984C9.54882 4.93557 9.66706 4.89083 9.76923 4.81963C10.0894 4.59912 10.4259 4.40323 10.7758 4.23364C10.8858 4.18019 10.9809 4.10047 11.0528 4.00153C11.1247 3.90259 11.1711 3.78748 11.1879 3.66636L11.5024 1.4285C11.5231 1.31032 11.5841 1.20297 11.6752 1.12482C11.7662 1.04666 11.8815 1.00254 12.0015 1H15.9987C16.1166 1.00204 16.2304 1.04421 16.3212 1.11955C16.412 1.19489 16.4744 1.29892 16.4982 1.41449L16.8122 3.64907C16.8299 3.77153 16.8775 3.88773 16.9508 3.98735C17.0242 4.08698 17.1211 4.16692 17.2328 4.22009C17.5822 4.38876 17.9176 4.58519 18.2356 4.80748C18.3374 4.87832 18.4553 4.92272 18.5785 4.93667C18.7018 4.95062 18.8266 4.93368 18.9417 4.88738L21.0393 4.04299C21.1505 4.00066 21.273 3.99892 21.3854 4.03807C21.4977 4.07722 21.5926 4.15475 21.6533 4.25701L23.6519 7.71495C23.712 7.81827 23.7335 7.93955 23.7125 8.05721C23.6916 8.17487 23.6295 8.28128 23.5375 8.35748L21.7519 9.75935C21.6537 9.83674 21.5764 9.93748 21.527 10.0524C21.4776 10.1673 21.4578 10.2927 21.4692 10.4173C21.4847 10.6107 21.4949 10.8051 21.4949 11Z" stroke="#D9D9D9" stroke-width="1.5" stroke-linecap="round" stroke-linejoin="round"/>
</svg>
