<svg width="19" height="22" viewBox="0 0 19 22" fill="none" xmlns="http://www.w3.org/2000/svg">
<path d="M7.02531 5.20825C6.77219 5.20825 6.56698 5.41347 6.56698 5.66659V7.20825H5.69198C5.43886 7.20825 5.23364 7.41347 5.23364 7.66659V16.3333C5.23364 16.5864 5.43886 16.7916 5.69198 16.7916H6.56698V17.9999C6.56698 18.253 6.77219 18.4583 7.02531 18.4583C7.27843 18.4583 7.48364 18.253 7.48364 17.9999V16.7916H8.35864C8.61176 16.7916 8.81698 16.5864 8.81698 16.3333V7.66659C8.81698 7.41347 8.61176 7.20825 8.35864 7.20825H7.48364V5.66659C7.48364 5.41347 7.27843 5.20825 7.02531 5.20825ZM7.90031 8.12492V15.8749H6.15031V8.12492H7.90031Z" fill="#D9D9D9" stroke="#D9D9D9" stroke-width="0.25"/>
<path d="M11.6918 3.875C11.4387 3.875 11.2335 4.08022 11.2335 4.33333V5.875H10.3585C10.1054 5.875 9.90015 6.08022 9.90015 6.33333V15C9.90015 15.2531 10.1054 15.4583 10.3585 15.4583H11.2335V16.6667C11.2335 16.9198 11.4387 17.125 11.6918 17.125C11.9449 17.125 12.1501 16.9198 12.1501 16.6667V15.4583H13.0251C13.2783 15.4583 13.4835 15.2531 13.4835 15V6.33333C13.4835 6.08022 13.2783 5.875 13.0251 5.875H12.1501V4.33333C12.1501 4.08022 11.9449 3.875 11.6918 3.875ZM12.5668 6.79167V14.5417H10.8168V6.79167H12.5668Z" fill="#D9D9D9" stroke="#D9D9D9" stroke-width="0.25"/>
<path d="M16.3586 7.875C16.1054 7.875 15.9002 8.08022 15.9002 8.33333V9.875H15.0252C14.7721 9.875 14.5669 10.0802 14.5669 10.3333V19C14.5669 19.2531 14.7721 19.4583 15.0252 19.4583H15.9002V20.6667C15.9002 20.9198 16.1054 21.125 16.3586 21.125C16.6117 21.125 16.8169 20.9198 16.8169 20.6667V19.4583H17.6919C17.945 19.4583 18.1502 19.2531 18.1502 19V10.3333C18.1502 10.0802 17.945 9.875 17.6919 9.875H16.8169V8.33333C16.8169 8.08022 16.6117 7.875 16.3586 7.875ZM17.2336 10.7917V18.5417H15.4836V10.7917H17.2336Z" fill="#D9D9D9" stroke="#D9D9D9" stroke-width="0.25"/>
<path d="M2.35856 0.875C2.10544 0.875 1.90023 1.08022 1.90023 1.33333V2.875H1.02523C0.77211 2.875 0.566895 3.08022 0.566895 3.33333V12C0.566895 12.2531 0.77211 12.4583 1.02523 12.4583H1.90023V13.6667C1.90023 13.9198 2.10544 14.125 2.35856 14.125C2.61168 14.125 2.81689 13.9198 2.81689 13.6667V12.4583H3.69189C3.94501 12.4583 4.15023 12.2531 4.15023 12V3.33333C4.15023 3.08022 3.94501 2.875 3.69189 2.875H2.81689V1.33333C2.81689 1.08022 2.61168 0.875 2.35856 0.875ZM3.23356 3.79167V11.5417H1.48356V3.79167H3.23356Z" fill="#D9D9D9" stroke="#D9D9D9" stroke-width="0.25"/>
</svg>
