<svg width="23" height="15" viewBox="0 0 23 15" fill="none" xmlns="http://www.w3.org/2000/svg">
<path d="M7.53467 10.5615C10.175 10.5615 12.3154 8.42111 12.3154 5.78076C12.3154 3.14042 10.175 1 7.53467 1C4.89433 1 2.75391 3.14042 2.75391 5.78076C2.75391 8.42111 4.89433 10.5615 7.53467 10.5615Z" stroke="white" stroke-miterlimit="10"/>
<path d="M13.7314 1.17468C14.1541 1.06006 14.5899 1.00133 15.0278 1C16.2957 1 17.5117 1.50369 18.4083 2.40025C19.3048 3.29682 19.8085 4.51283 19.8085 5.78076C19.8085 7.0487 19.3048 8.26471 18.4083 9.16127C17.5117 10.0578 16.2957 10.5615 15.0278 10.5615" stroke="white" stroke-linecap="round" stroke-linejoin="round"/>
<path d="M0.915039 13.9998C1.66153 12.9376 2.6527 12.0706 3.80483 11.472C4.95697 10.8735 6.23623 10.561 7.53456 10.561C8.83289 10.561 10.1121 10.8735 11.2643 11.472C12.4164 12.0706 13.4076 12.9376 14.1541 13.9998" stroke="white" stroke-linecap="round" stroke-linejoin="round"/>
<path d="M15.0273 10.5615C16.3258 10.5607 17.6053 10.8728 18.7576 11.4713C19.9098 12.0699 20.9009 12.9372 21.6469 14" stroke="white" stroke-linecap="round" stroke-linejoin="round"/>
</svg>
