<svg width="12" height="13" viewBox="0 0 12 13" fill="none" xmlns="http://www.w3.org/2000/svg">
<path d="M9.44639 1.08105C9.21741 1.08105 9.03237 1.26666 9.03237 1.49564C9.03237 1.72463 9.21518 1.91023 9.44418 1.91023C10.3488 1.91023 11.082 2.64612 11.082 3.55068V3.98814H0.833028V3.55068C0.833028 2.64612 1.56623 1.91023 2.47089 1.91023C2.69987 1.91023 2.88414 1.72463 2.88414 1.49564C2.88414 1.26666 2.69862 1.08105 2.46964 1.08105C1.10779 1.08105 0 2.18895 0 3.55069V10.53C0 11.8918 1.10637 13.0001 2.46821 13.0001H9.44755C10.8094 13.0001 11.915 11.8918 11.915 10.53V3.55068C11.915 2.18895 10.8082 1.08105 9.44639 1.08105ZM9.44753 12.1671H2.46819C1.56353 12.1671 0.833015 11.4346 0.833015 10.53V4.82118H11.0819V10.53C11.0819 11.4346 10.3522 12.1671 9.44753 12.1671Z" fill="white"/>
<path d="M4.64994 1.90538H7.2411C7.47009 1.90538 7.65569 1.72416 7.65569 1.49517C7.65569 1.26619 7.47009 1.08496 7.2411 1.08496H4.64994C4.42096 1.08496 4.23535 1.26619 4.23535 1.49517C4.23535 1.72416 4.42096 1.90538 4.64994 1.90538Z" fill="white"/>
<path d="M3.5464 3.22414C3.77539 3.22414 3.96292 3.03854 3.96292 2.80956V0.414589C3.96292 0.185604 3.77539 0 3.5464 0C3.31742 0 3.12988 0.185604 3.12988 0.414589V2.80954C3.12988 3.03854 3.31742 3.22414 3.5464 3.22414Z" fill="white"/>
<path d="M8.36769 3.22414C8.59668 3.22414 8.78421 3.03854 8.78421 2.80956V0.414589C8.78421 0.185604 8.59668 0 8.36769 0C8.13871 0 7.95117 0.185604 7.95117 0.414589V2.80954C7.95117 3.03854 8.13871 3.22414 8.36769 3.22414Z" fill="white"/>
</svg>
