<svg width="25" height="25" viewBox="0 0 25 25" fill="none" xmlns="http://www.w3.org/2000/svg">
<path d="M21.1736 25H3.82642C2.81181 24.9985 1.83922 24.5946 1.12191 23.8771C0.404613 23.1595 0.00115006 22.1867 0 21.1721V3.82642C0.00115085 2.81194 0.40466 1.83935 1.122 1.122C1.83935 0.40466 2.81194 0.00115085 3.82642 0H21.1736C22.1881 0.00115085 23.1607 0.40466 23.878 1.122C24.5953 1.83935 24.9988 2.81194 25 3.82642V21.1721C24.9988 22.1867 24.5954 23.1595 23.8781 23.8771C23.1608 24.5946 22.1882 24.9985 21.1736 25ZM3.82642 1.81175C3.29227 1.81233 2.78017 2.02477 2.40247 2.40247C2.02477 2.78017 1.81233 3.29227 1.81175 3.82642V21.1721C1.81213 21.7065 2.02447 22.2188 2.40217 22.5968C2.77987 22.9748 3.29208 23.1875 3.82642 23.1882H21.1736C21.7079 23.1875 22.2201 22.9748 22.5978 22.5968C22.9755 22.2188 23.1879 21.7065 23.1882 21.1721V3.82642C23.1877 3.29227 22.9752 2.78017 22.5975 2.40247C22.2198 2.02477 21.7077 1.81233 21.1736 1.81175H3.82642Z" fill="white"/>
<path d="M8.41375 12.3011C7.77334 12.3011 7.14731 12.1112 6.61483 11.7554C6.08235 11.3996 5.66733 10.8939 5.42226 10.3023C5.17718 9.71061 5.11306 9.05957 5.238 8.43146C5.36294 7.80336 5.67132 7.22641 6.12416 6.77357C6.577 6.32074 7.15395 6.01235 7.78205 5.88741C8.41015 5.76248 9.0612 5.8266 9.65286 6.07167C10.2445 6.31675 10.7502 6.73176 11.106 7.26424C11.4618 7.79672 11.6517 8.42275 11.6517 9.06316C11.6507 9.92163 11.3093 10.7447 10.7023 11.3517C10.0952 11.9587 9.27221 12.3002 8.41375 12.3011ZM8.41375 7.63767C8.13164 7.63767 7.85586 7.72134 7.62131 7.87808C7.38675 8.03483 7.20395 8.25762 7.09603 8.51826C6.9881 8.77891 6.9599 9.06571 7.01499 9.34239C7.07008 9.61907 7.20599 9.87319 7.40552 10.0726C7.60505 10.2721 7.85924 10.4078 8.13595 10.4628C8.41266 10.5177 8.69944 10.4894 8.96004 10.3813C9.22063 10.2733 9.44332 10.0904 9.59995 9.85572C9.75658 9.62108 9.8401 9.34527 9.83996 9.06316C9.83938 8.68515 9.68891 8.32279 9.42155 8.05557C9.15419 7.78834 8.79176 7.63806 8.41375 7.63767Z" fill="white"/>
<path d="M1.74924 22.9498C1.57431 22.9496 1.40316 22.8988 1.25648 22.8035C1.1098 22.7082 0.993857 22.5724 0.922659 22.4126C0.851461 22.2528 0.828054 22.0758 0.855265 21.903C0.882475 21.7302 0.95914 21.569 1.076 21.4388L5.33434 16.6942C5.74525 16.2337 6.3188 15.9506 6.93423 15.9045C7.54967 15.8584 8.15898 16.0529 8.6339 16.4471L10.4638 17.9573C10.5232 18.0081 10.5926 18.0458 10.6675 18.068C10.7424 18.0902 10.8211 18.0965 10.8986 18.0863C10.9754 18.0784 11.0499 18.055 11.1175 18.0176C11.1851 17.9803 11.2445 17.9297 11.2921 17.8689L16.107 11.6481C16.329 11.3595 16.6144 11.1258 16.9411 10.9651C17.2678 10.8044 17.6271 10.7209 17.9912 10.7212H17.9999C18.3607 10.7207 18.7168 10.8023 19.0413 10.9597C19.3659 11.1171 19.6504 11.3463 19.8733 11.63L24.4911 17.5051C24.6396 17.6941 24.7069 17.9342 24.6783 18.1728C24.6497 18.4114 24.5275 18.6289 24.3385 18.7773C24.1496 18.9258 23.9094 18.9931 23.6708 18.9645C23.4322 18.9359 23.2148 18.8137 23.0663 18.6248L18.4485 12.7496C18.3946 12.6809 18.3255 12.6256 18.2467 12.5879C18.1679 12.5502 18.0815 12.5311 17.9941 12.5322C17.9065 12.5354 17.8205 12.557 17.7417 12.5956C17.6629 12.6342 17.5931 12.6889 17.5368 12.7562L12.7183 18.9741C12.5222 19.2271 12.2774 19.4381 11.9982 19.5947C11.7191 19.7513 11.4113 19.8503 11.0932 19.8858C10.7751 19.9213 10.4531 19.8925 10.1463 19.8013C9.83951 19.71 9.55415 19.5581 9.30715 19.3546L7.47728 17.8443C7.36251 17.749 7.21525 17.7021 7.06654 17.7133C6.91783 17.7245 6.77929 17.7931 6.68011 17.9044L2.42756 22.6454C2.34261 22.7414 2.23818 22.8182 2.12121 22.8707C2.00425 22.9232 1.87744 22.9502 1.74924 22.9498Z" fill="white"/>
</svg>
