<svg width="20" height="20" viewBox="0 0 20 20" fill="none" xmlns="http://www.w3.org/2000/svg">
<path d="M10.0004 0C4.48644 0 0.000488281 4.48586 0.000488281 9.99971C0.000488281 15.514 4.48644 20 10.0004 20C15.5142 20 20.0001 15.5139 20.0001 9.99971C20.0001 4.48586 15.5142 0 10.0004 0ZM10.0004 18.5665C5.27686 18.5665 1.43397 14.7234 1.43397 9.99971C1.43397 5.27628 5.27686 1.43349 10.0004 1.43349C14.7238 1.43349 18.5666 5.27628 18.5666 9.99971C18.5666 14.7234 14.7238 18.5665 10.0004 18.5665Z" fill="white"/>
<path d="M15.1421 9.83235H10.4428V4.6955C10.4428 4.29967 10.1219 3.97876 9.72602 3.97876C9.33019 3.97876 9.00928 4.29967 9.00928 4.6955V10.5491C9.00928 10.9449 9.33019 11.2658 9.72602 11.2658H15.1421C15.538 11.2658 15.8589 10.9449 15.8589 10.5491C15.8589 10.1533 15.5379 9.83235 15.1421 9.83235Z" fill="white"/>
</svg>
