<svg width="16" height="20" viewBox="0 0 16 20" fill="none" xmlns="http://www.w3.org/2000/svg">
<path d="M15.2 2.40001H11.2V1.60001C11.2 0.716453 10.4836 0 9.59998 0H5.59999C4.7164 0 3.99998 0.716453 3.99998 1.60001V2.40001H0V3.20002H0.824245L1.62501 18.4C1.62501 19.2836 2.34143 20 3.22502 20H12.025C12.9086 20 13.625 19.2836 13.625 18.4L14.4117 3.20002H15.2V2.40001H15.2ZM4.79999 1.60001C4.79999 1.15861 5.1594 0.800005 5.59999 0.800005H9.59998C10.0414 0.800005 10.4 1.15861 10.4 1.60001V2.40001H4.79999V1.60001ZM12.8265 18.3586L12.825 18.3789V18.4C12.825 18.8406 12.4664 19.2 12.025 19.2H3.22498C2.78439 19.2 2.42498 18.8406 2.42498 18.4V18.3789L2.42421 18.3578L1.62501 3.20002H13.611L12.8265 18.3586Z" fill="white"/>
<path d="M8.0002 4.80005H7.2002V17.6H8.0002V4.80005Z" fill="white"/>
<path d="M5.61814 17.5743L4.79941 4.79932L4.00098 4.85005L4.81975 17.625L5.61814 17.5743Z" fill="white"/>
<path d="M11.2056 4.82499L10.4071 4.77502L9.6001 17.575L10.3985 17.625L11.2056 4.82499Z" fill="white"/>
</svg>
