<svg width="14" height="19" viewBox="0 0 14 19" fill="none" xmlns="http://www.w3.org/2000/svg">
<path d="M7 0.5V18.5" stroke="white" stroke-linecap="round" stroke-linejoin="round"/>
<path d="M11.846 6.03844C11.846 5.58387 11.7565 5.13374 11.5825 4.71377C11.4086 4.2938 11.1536 3.9122 10.8322 3.59077C10.5107 3.26933 10.1291 3.01436 9.70918 2.8404C9.2892 2.66644 8.83908 2.5769 8.3845 2.5769H5.26912C4.35106 2.5769 3.47061 2.9416 2.82144 3.59077C2.17228 4.23993 1.80758 5.12039 1.80758 6.03844C1.80758 6.9565 2.17228 7.83696 2.82144 8.48612C3.47061 9.13529 4.35106 9.49998 5.26912 9.49998H9.07681C9.99487 9.49998 10.8753 9.86468 11.5245 10.5138C12.1737 11.163 12.5383 12.0435 12.5383 12.9615C12.5383 13.8796 12.1737 14.76 11.5245 15.4092C10.8753 16.0584 9.99487 16.4231 9.07681 16.4231H4.92296C4.00491 16.4231 3.12445 16.0584 2.47529 15.4092C1.82612 14.76 1.46143 13.8796 1.46143 12.9615" stroke="white" stroke-linecap="round" stroke-linejoin="round"/>
</svg>
