<svg width="15" height="22" viewBox="0 0 15 22" fill="none" xmlns="http://www.w3.org/2000/svg">
<path d="M13.8246 10.2086H7.89117C8.00624 9.80729 8.22515 9.16394 8.59322 8.49062C9.01431 7.72031 9.62647 6.91838 10.4943 6.39092L10.4944 6.39086C10.7208 6.25296 10.7934 5.95746 10.6552 5.73058L10.6552 5.73047C10.5173 5.50467 10.2223 5.43152 9.99503 5.56967L9.99503 5.56967C8.87054 6.25315 8.12618 7.28182 7.64579 8.2127C7.20775 9.0615 6.98575 9.83562 6.89456 10.2086H1.38073C1.11525 10.2086 0.900146 10.4235 0.900146 10.6891V13.1779C0.900146 13.4434 1.1151 13.6585 1.38073 13.6585H2.00773L2.63394 20.6869C2.63394 20.687 2.63394 20.687 2.63395 20.687C2.65597 20.9348 2.86395 21.1249 3.1126 21.1249H12.0928C12.3414 21.1249 12.5494 20.9349 12.5714 20.687C12.5714 20.687 12.5714 20.687 12.5714 20.6869L13.1976 13.6585H13.8246C14.0901 13.6585 14.3052 13.4436 14.3052 13.1779V10.689V10.689C14.3051 10.4234 14.0903 10.2086 13.8246 10.2086ZM12.2329 13.6584L11.6531 20.1637H3.55225L2.97245 13.6584H12.2329ZM13.3441 12.6973H12.758H2.44738H1.86131V11.1696H13.3442L13.3441 12.6973Z" fill="#D9D9D9" stroke="#D9D9D9" stroke-width="0.25"/>
<path d="M6.71338 4.75199L6.71331 4.75191C6.47301 4.47524 6.11673 4.31101 5.75035 4.21626C5.43903 4.13575 5.12997 4.10787 4.8993 4.10015C4.87469 4.32969 4.85929 4.6396 4.89575 4.95906C4.93866 5.33499 5.05184 5.7106 5.2924 5.98711L5.29245 5.98717C5.63771 6.3845 6.06517 6.68041 6.45956 6.80395C6.55973 6.83504 6.69807 6.86748 6.83778 6.86756C6.97766 6.86764 7.10654 6.83549 7.2038 6.7509L6.71338 4.75199ZM6.71338 4.75199C7.05905 5.14933 7.29234 5.61374 7.35971 6.02148L7.35973 6.02157M6.71338 4.75199L7.35973 6.02157M7.35973 6.02157C7.37685 6.12476 7.38979 6.26617 7.3704 6.4045M7.35973 6.02157L7.3704 6.4045M7.3704 6.4045C7.35101 6.54293 7.30117 6.66616 7.20382 6.75088L7.3704 6.4045ZM7.83435 7.47646L7.83438 7.47644C8.2592 7.10708 8.41745 6.52683 8.30791 5.86487L8.30791 5.86483C8.20904 5.26844 7.8986 4.65061 7.43874 4.12144L7.43873 4.12144C6.93824 3.54557 6.20172 3.30344 5.59587 3.2035C4.99018 3.10358 4.49432 3.14233 4.44427 3.14707C4.23677 3.16518 4.06504 3.31539 4.01825 3.51773L4.01825 3.51773L4.01818 3.51804C4.00821 3.56164 3.89979 4.04866 3.91445 4.66522C3.92904 5.27906 4.06614 6.04221 4.56686 6.61809L4.56688 6.61812C5.02682 7.14672 5.59559 7.54048 6.17234 7.72109C6.40191 7.79314 6.62563 7.82964 6.83818 7.82964C7.21958 7.82964 7.56324 7.71202 7.83435 7.47646Z" fill="#D9D9D9" stroke="#D9D9D9" stroke-width="0.25"/>
<path d="M14.8396 5.79982V5.79981C14.8395 4.84854 14.0659 4.07485 13.1146 4.07485C12.6934 4.07485 12.3508 3.73225 12.3508 3.31104C12.3508 2.88983 12.6934 2.54723 13.1146 2.54723C13.5358 2.54723 13.8784 2.88983 13.8784 3.31104C13.8784 3.57652 14.0934 3.79163 14.359 3.79163C14.6246 3.79163 14.8396 3.57665 14.8396 3.31104C14.8396 2.46282 14.223 1.7647 13.4175 1.62099V1.35558C13.4175 1.09011 13.2025 0.875 12.9369 0.875C12.6714 0.875 12.4563 1.08996 12.4563 1.35558V1.72368C11.833 1.98262 11.3896 2.59265 11.3896 3.31104C11.3896 4.26233 12.1633 5.03602 13.1146 5.03602C13.5358 5.03602 13.8784 5.37861 13.8784 5.79982C13.8784 6.22103 13.5358 6.56363 13.1146 6.56363C12.6934 6.56363 12.3508 6.22103 12.3508 5.79982C12.3508 5.53434 12.1359 5.31924 11.8702 5.31924C11.6046 5.31924 11.3896 5.53422 11.3896 5.79982C11.3896 6.51811 11.8329 7.12824 12.4563 7.38719V7.90253C12.4563 8.16801 12.6713 8.38311 12.9369 8.38311C13.2024 8.38311 13.4175 8.16816 13.4175 7.90253V7.48988C14.223 7.34617 14.8396 6.64805 14.8396 5.79982Z" fill="#D9D9D9" stroke="#D9D9D9" stroke-width="0.25"/>
</svg>
