<svg width="20" height="21" viewBox="0 0 20 21" fill="none" xmlns="http://www.w3.org/2000/svg">
<path d="M3.13921 18.9643L4.31774 20.1429C4.54987 20.375 4.857 20.5 5.18199 20.5H18.4636C18.86 20.5 19.1815 20.1786 19.1815 19.7822V15.1538C19.1815 14.8609 19.11 14.5717 18.9743 14.311L17.7494 11.9789C17.6137 11.7218 17.4137 11.4968 17.1708 11.3289L10.1568 6.50411V1.10432C10.1568 0.904323 10.0604 0.718616 9.89609 0.607906C9.73181 0.493625 9.52468 0.468626 9.33897 0.540052L5.48912 2.00071L1.6357 0.540052C1.44999 0.468626 1.24285 0.493625 1.07858 0.607906C0.914296 0.722187 0.817871 0.907895 0.817871 1.10432V6.33269C0.817871 6.66124 0.946438 6.96838 1.175 7.19694L2.77851 8.80045V18.0929C2.77851 18.4215 2.90708 18.7286 3.13564 18.9572L3.13921 18.9643ZM3.49634 9.51828L4.66058 10.6825C5.11771 11.1396 5.86054 11.1396 6.31409 10.6825L8.19259 8.80402L3.49277 17.1001V9.51828H3.49634ZM4.44273 9.45399H6.53908L5.81411 10.179C5.63554 10.3575 5.34627 10.3575 5.1677 10.179L4.44273 9.45399ZM11.2818 19.7857L18.4708 15.4323V19.7857H11.2818ZM18.3422 14.6467C18.3422 14.6467 18.3422 14.6645 18.3493 14.6717L16.2209 15.9609L17.3315 12.7289L18.3422 14.6467ZM16.7673 11.9218C16.7958 11.9396 16.8065 11.9718 16.8315 11.9932L15.2673 16.5359L9.90324 19.7857H5.18556C5.04985 19.7857 4.92129 19.7322 4.82486 19.6357L3.64633 18.4572C3.62134 18.4322 3.62491 18.3894 3.60705 18.3572L9.91752 7.21122L16.7637 11.9218H16.7673ZM2.88565 4.47919L1.53213 5.83271V2.09713L2.88565 4.47919ZM1.97497 1.43287L4.84272 2.52212L3.40706 3.95778L1.9714 1.43645L1.97497 1.43287ZM9.43897 2.09713V5.83271L8.08545 4.47919L9.43897 2.09713ZM7.56047 3.95421L6.12481 2.51855L8.99256 1.4293L7.5569 3.95421H7.56047ZM1.67855 6.69339L5.48555 2.88639L9.29255 6.69339L7.24977 8.73617H3.7249L1.68212 6.69339H1.67855Z" fill="white"/>
</svg>
