<svg width="14" height="20" viewBox="0 0 14 20" fill="none" xmlns="http://www.w3.org/2000/svg">
<path d="M6.66667 17.3333C4.89856 17.3333 3.20286 16.631 1.95262 15.3807C0.702379 14.1305 0 12.4348 0 10.6667C0 10.4899 0.070238 10.3203 0.195262 10.1953C0.320287 10.0702 0.489856 10 0.666667 10C0.843478 10 1.01305 10.0702 1.13807 10.1953C1.2631 10.3203 1.33333 10.4899 1.33333 10.6667C1.33333 12.0812 1.89524 13.4377 2.89543 14.4379C3.89562 15.4381 5.25218 16 6.66667 16C8.08115 16 9.43771 15.4381 10.4379 14.4379C11.4381 13.4377 12 12.0812 12 10.6667C12 10.4899 12.0702 10.3203 12.1953 10.1953C12.3203 10.0702 12.4899 10 12.6667 10C12.8435 10 13.013 10.0702 13.1381 10.1953C13.2631 10.3203 13.3333 10.4899 13.3333 10.6667C13.3333 12.4348 12.631 14.1305 11.3807 15.3807C10.1305 16.631 8.43478 17.3333 6.66667 17.3333Z" fill="white"/>
<path d="M6.66667 20C6.48986 20 6.32029 19.9298 6.19526 19.8047C6.07024 19.6797 6 19.5101 6 19.3333V16.6667C6 16.4899 6.07024 16.3203 6.19526 16.1953C6.32029 16.0702 6.48986 16 6.66667 16C6.84348 16 7.01305 16.0702 7.13807 16.1953C7.2631 16.3203 7.33333 16.4899 7.33333 16.6667V19.3333C7.33333 19.5101 7.2631 19.6797 7.13807 19.8047C7.01305 19.9298 6.84348 20 6.66667 20Z" fill="white"/>
<path d="M6.6665 14.6667C5.60564 14.6667 4.58822 14.2452 3.83808 13.4951C3.08793 12.7449 2.6665 11.7275 2.6665 10.6667V4C2.6665 2.93913 3.08793 1.92172 3.83808 1.17157C4.58822 0.421427 5.60564 0 6.6665 0C7.72737 0 8.74479 0.421427 9.49493 1.17157C10.2451 1.92172 10.6665 2.93913 10.6665 4V10.6667C10.6665 11.7275 10.2451 12.7449 9.49493 13.4951C8.74479 14.2452 7.72737 14.6667 6.6665 14.6667ZM6.6665 1.33333C5.95926 1.33333 5.28098 1.61428 4.78089 2.11438C4.28079 2.61448 3.99984 3.29276 3.99984 4V10.6667C3.99984 11.3739 4.28079 12.0522 4.78089 12.5523C5.28098 13.0524 5.95926 13.3333 6.6665 13.3333C7.37375 13.3333 8.05202 13.0524 8.55212 12.5523C9.05222 12.0522 9.33317 11.3739 9.33317 10.6667V4C9.33317 3.29276 9.05222 2.61448 8.55212 2.11438C8.05202 1.61428 7.37375 1.33333 6.6665 1.33333Z" fill="white"/>
</svg>
