<svg width="21" height="20" viewBox="0 0 21 20" fill="none" xmlns="http://www.w3.org/2000/svg">
<path fill-rule="evenodd" clip-rule="evenodd" d="M18.8169 0H5.06689C4.03127 0 3.19189 0.83875 3.19189 1.875V3.125H2.56689C1.53127 3.125 0.691895 3.96375 0.691895 5V17.5C0.691895 18.8806 1.81127 20 3.19189 20H18.1919C19.5725 20 20.6919 18.8806 20.6919 17.5V1.875C20.6919 0.83875 19.8519 0 18.8169 0ZM19.4419 17.5C19.4419 18.1887 18.8806 18.75 18.1919 18.75H3.19189C2.50252 18.75 1.94189 18.1887 1.94189 17.5V5C1.94189 4.655 2.22189 4.375 2.56689 4.375H3.19189V16.875C3.19189 17.2206 3.47127 17.5 3.81689 17.5C4.16252 17.5 4.44189 17.2206 4.44189 16.875V1.875C4.44189 1.53 4.72189 1.25 5.06689 1.25H18.8169C19.1613 1.25 19.4419 1.53 19.4419 1.875V17.5Z" fill="#D9D9D9"/>
<path fill-rule="evenodd" clip-rule="evenodd" d="M12.8782 8.12817H17.8782C18.0513 8.12817 18.1907 7.98817 18.1907 7.81567C18.1907 7.64317 18.0513 7.50317 17.8782 7.50317H12.8782C12.7063 7.50317 12.5657 7.64317 12.5657 7.81567C12.5657 7.98817 12.7063 8.12817 12.8782 8.12817Z" fill="#D9D9D9"/>
<path fill-rule="evenodd" clip-rule="evenodd" d="M12.8782 6.25317H17.8782C18.0513 6.25317 18.1907 6.11317 18.1907 5.94067C18.1907 5.76817 18.0513 5.62817 17.8782 5.62817H12.8782C12.7063 5.62817 12.5657 5.76817 12.5657 5.94067C12.5657 6.11317 12.7063 6.25317 12.8782 6.25317Z" fill="#D9D9D9"/>
<path fill-rule="evenodd" clip-rule="evenodd" d="M12.8782 4.37817H17.8782C18.0513 4.37817 18.1907 4.23817 18.1907 4.06567C18.1907 3.89317 18.0513 3.75317 17.8782 3.75317H12.8782C12.7063 3.75317 12.5657 3.89317 12.5657 4.06567C12.5657 4.23817 12.7063 4.37817 12.8782 4.37817Z" fill="#D9D9D9"/>
<path fill-rule="evenodd" clip-rule="evenodd" d="M11.0044 16.8777H6.00439C5.83189 16.8777 5.69189 17.0183 5.69189 17.1902C5.69189 17.3633 5.83189 17.5027 6.00439 17.5027H11.0044C11.1763 17.5027 11.3169 17.3633 11.3169 17.1902C11.3169 17.0183 11.1769 16.8777 11.0044 16.8777Z" fill="#D9D9D9"/>
<path fill-rule="evenodd" clip-rule="evenodd" d="M11.0044 15.0024H6.00439C5.83189 15.0024 5.69189 15.1431 5.69189 15.3149C5.69189 15.4881 5.83189 15.6274 6.00439 15.6274H11.0044C11.1763 15.6274 11.3169 15.4881 11.3169 15.3149C11.3169 15.1431 11.1769 15.0024 11.0044 15.0024Z" fill="#D9D9D9"/>
<path fill-rule="evenodd" clip-rule="evenodd" d="M11.0044 13.1274H6.00439C5.83189 13.1274 5.69189 13.2681 5.69189 13.4399C5.69189 13.6131 5.83189 13.7524 6.00439 13.7524H11.0044C11.1763 13.7524 11.3169 13.6131 11.3169 13.4399C11.3169 13.2681 11.1769 13.1274 11.0044 13.1274Z" fill="#D9D9D9"/>
<path fill-rule="evenodd" clip-rule="evenodd" d="M17.8794 16.8777H12.8794C12.7063 16.8777 12.5669 17.0183 12.5669 17.1902C12.5669 17.3633 12.7063 17.5027 12.8794 17.5027H17.8794C18.0513 17.5027 18.1919 17.3633 18.1919 17.1902C18.1919 17.0183 18.0513 16.8777 17.8794 16.8777Z" fill="#D9D9D9"/>
<path fill-rule="evenodd" clip-rule="evenodd" d="M17.8794 15.0024H12.8794C12.7063 15.0024 12.5669 15.1431 12.5669 15.3149C12.5669 15.4881 12.7063 15.6274 12.8794 15.6274H17.8794C18.0513 15.6274 18.1919 15.4881 18.1919 15.3149C18.1919 15.1431 18.0513 15.0024 17.8794 15.0024Z" fill="#D9D9D9"/>
<path fill-rule="evenodd" clip-rule="evenodd" d="M17.8794 13.1274H12.8794C12.7063 13.1274 12.5669 13.2681 12.5669 13.4399C12.5669 13.6131 12.7063 13.7524 12.8794 13.7524H17.8794C18.0513 13.7524 18.1919 13.6131 18.1919 13.4399C18.1919 13.2681 18.0513 13.1274 17.8794 13.1274Z" fill="#D9D9D9"/>
<path fill-rule="evenodd" clip-rule="evenodd" d="M17.8794 9.37744H6.00439C5.83189 9.37744 5.69189 9.51744 5.69189 9.68994C5.69189 9.86244 5.83189 10.0024 6.00439 10.0024H17.8794C18.0513 10.0024 18.1919 9.86244 18.1919 9.68994C18.1919 9.51744 18.0513 9.37744 17.8794 9.37744Z" fill="#D9D9D9"/>
<path fill-rule="evenodd" clip-rule="evenodd" d="M17.8794 11.2524H6.00439C5.83189 11.2524 5.69189 11.3931 5.69189 11.5649C5.69189 11.7381 5.83189 11.8774 6.00439 11.8774H17.8794C18.0513 11.8774 18.1919 11.7381 18.1919 11.5649C18.1919 11.3931 18.0513 11.2524 17.8794 11.2524Z" fill="#D9D9D9"/>
<path fill-rule="evenodd" clip-rule="evenodd" d="M6.31689 8.12494H10.6919C11.0375 8.12494 11.3169 7.84557 11.3169 7.49994V3.12744C11.3169 2.78182 11.0375 2.50244 10.6919 2.50244H6.31689C5.97127 2.50244 5.69189 2.78182 5.69189 3.12744V7.49994C5.69189 7.84494 5.97127 8.12494 6.31689 8.12494ZM6.94189 3.74994H10.0669V6.87494H6.94189V3.74994Z" fill="#D9D9D9"/>
</svg>
