<svg width="23" height="17" viewBox="0 0 23 17" fill="none" xmlns="http://www.w3.org/2000/svg">
<path d="M3.37956 15.4263C3.40332 15.5238 3.44642 15.6157 3.5063 15.6963C3.56618 15.7769 3.64164 15.8447 3.72821 15.8958C3.81478 15.9468 3.9107 15.98 4.01032 15.9933C4.10994 16.0067 4.21123 16 4.30821 15.9736C8.73511 14.7492 13.4119 14.7492 17.8388 15.9736C17.9357 16 18.037 16.0067 18.1366 15.9933C18.2363 15.98 18.3322 15.9468 18.4188 15.8958C18.5053 15.8447 18.5808 15.7769 18.6407 15.6963C18.7005 15.6157 18.7436 15.5238 18.7674 15.4263L21.1355 5.38066C21.168 5.2462 21.1622 5.10534 21.1189 4.97397C21.0755 4.84261 20.9962 4.72597 20.89 4.63722C20.7837 4.54848 20.6548 4.49116 20.5176 4.47173C20.3805 4.45231 20.2407 4.47155 20.114 4.52729L15.415 6.61434C15.2447 6.68921 15.0527 6.69842 14.876 6.64017C14.6994 6.58193 14.5506 6.46036 14.4584 6.29896L11.7282 1.38281C11.6639 1.26683 11.5698 1.17015 11.4554 1.10283C11.3411 1.03551 11.2108 1 11.0781 1C10.9454 1 10.8151 1.03551 10.7008 1.10283C10.5865 1.17015 10.4923 1.26683 10.4281 1.38281L7.69781 6.29896C7.60564 6.46036 7.45686 6.58193 7.28021 6.64017C7.10355 6.69842 6.91155 6.68921 6.7413 6.61434L2.04229 4.52729C1.91554 4.47155 1.77572 4.45231 1.6386 4.47173C1.50148 4.49116 1.37253 4.54848 1.2663 4.63722C1.16007 4.72597 1.08078 4.84261 1.0374 4.97397C0.994012 5.10534 0.988251 5.2462 1.02077 5.38066L3.37956 15.4263Z" stroke="#6A1B9A" stroke-width="2" stroke-linecap="round" stroke-linejoin="round"/>
</svg>
