<svg width="27" height="20" viewBox="0 0 27 20" fill="none" xmlns="http://www.w3.org/2000/svg">
<path d="M26.127 5.45728L15.649 0.338728C14.7457 -0.112909 13.2101 -0.112909 12.3069 0.338728L1.58801 5.45728C0.83528 5.81859 0.714844 6.33045 0.714844 6.60143C0.714844 6.87241 0.83528 7.35416 1.58801 7.74558L2.46117 8.1671V12.9846C1.91921 13.1953 1.52779 13.7373 1.52779 14.3395C1.52779 14.9417 1.91921 15.4836 2.43106 15.6944L1.07615 20H4.86991L3.51499 15.6944C4.05696 15.4836 4.41827 14.9417 4.41827 14.3395C4.41827 13.7072 4.02685 13.1953 3.48488 12.9846V8.67896L5.08067 9.4618V15.7245C5.08067 15.8148 5.11078 15.9052 5.171 15.9955C5.32154 16.1761 8.12169 20 13.8424 20C19.5632 20 22.3633 16.146 22.4838 15.9955C22.544 15.9052 22.5741 15.8148 22.5741 15.7245V9.49191L26.127 7.74558C26.8797 7.38427 27.0001 6.87241 27.0001 6.60143C26.97 6.33045 26.8797 5.81859 26.127 5.45728ZM21.6106 15.574C21.1288 16.1761 18.5395 19.0666 13.8424 19.0666C9.1454 19.0666 6.55602 16.1761 6.07427 15.574V9.88333L12.3069 12.8641C12.7585 13.0749 13.3607 13.1953 13.9629 13.1953C14.5952 13.1953 15.1973 13.0749 15.649 12.834L21.6106 9.91343V15.574ZM25.7054 6.90252L22.0923 8.67896C21.9418 8.67896 21.8214 8.73918 21.7611 8.85962L15.2275 12.0211C14.5952 12.3523 13.3607 12.3523 12.6983 12.0211L4.65914 8.1671L13.9026 7.08318C14.1736 7.05307 14.3543 6.81219 14.3242 6.57132C14.2941 6.30034 14.0532 6.11968 13.8123 6.14979L3.09347 7.41438L2.00954 6.90252C1.73855 6.78208 1.67834 6.63154 1.67834 6.63154C1.67834 6.60143 1.73855 6.48099 2.00954 6.36056L12.7284 1.21189C13.0596 1.06135 13.5112 0.97102 13.9629 0.97102C14.4446 0.97102 14.9264 1.06135 15.2275 1.21189L25.7054 6.33045C25.9764 6.45088 26.0366 6.57132 26.0366 6.63154C26.0366 6.63154 25.9463 6.78208 25.7054 6.90252Z" fill="#D9D9D9"/>
</svg>
