<svg width="22" height="15" viewBox="0 0 22 15" fill="none" xmlns="http://www.w3.org/2000/svg">
<path d="M7.36734 10.5615C10.0077 10.5615 12.1481 8.42111 12.1481 5.78076C12.1481 3.14042 10.0077 1 7.36734 1C4.727 1 2.58658 3.14042 2.58658 5.78076C2.58658 8.42111 4.727 10.5615 7.36734 10.5615Z" stroke="#6A1B9A" stroke-miterlimit="10"/>
<path d="M13.5639 1.17468C13.9866 1.06006 14.4224 1.00133 14.8603 1C16.1282 1 17.3442 1.50369 18.2408 2.40025C19.1373 3.29682 19.641 4.51283 19.641 5.78076C19.641 7.0487 19.1373 8.26471 18.2408 9.16127C17.3442 10.0578 16.1282 10.5615 14.8603 10.5615" stroke="#6A1B9A" stroke-linecap="round" stroke-linejoin="round"/>
<path d="M0.747803 13.9998C1.49429 12.9376 2.48546 12.0706 3.6376 11.472C4.78973 10.8735 6.06899 10.561 7.36732 10.561C8.66565 10.561 9.94491 10.8735 11.097 11.472C12.2492 12.0706 13.2404 12.9376 13.9868 13.9998" stroke="#6A1B9A" stroke-linecap="round" stroke-linejoin="round"/>
<path d="M14.8602 10.5613C16.1587 10.5605 17.4382 10.8726 18.5904 11.4711C19.7427 12.0696 20.7338 12.937 21.4797 13.9998" stroke="#6A1B9A" stroke-linecap="round" stroke-linejoin="round"/>
</svg>
