<svg width="28" height="18" viewBox="0 0 28 18" fill="none" xmlns="http://www.w3.org/2000/svg">
<path d="M9.67686 12.5324C12.7234 12.5324 15.1931 10.0627 15.1931 7.01622C15.1931 3.96969 12.7234 1.5 9.67686 1.5C6.63034 1.5 4.16064 3.96969 4.16064 7.01622C4.16064 10.0627 6.63034 12.5324 9.67686 12.5324Z" stroke="#D9D9D9" stroke-width="1.5" stroke-miterlimit="10"/>
<path d="M16.827 1.70155C17.3147 1.5693 17.8175 1.50154 18.3228 1.5C19.7858 1.5 21.1888 2.08117 22.2233 3.11566C23.2578 4.15015 23.839 5.55323 23.839 7.01622C23.839 8.47921 23.2578 9.88228 22.2233 10.9168C21.1888 11.9513 19.7858 12.5324 18.3228 12.5324" stroke="#D9D9D9" stroke-width="1.5" stroke-linecap="round" stroke-linejoin="round"/>
<path d="M2.03931 16.5C2.90063 15.2744 4.04428 14.274 5.37366 13.5834C6.70303 12.8928 8.17909 12.5322 9.67715 12.5322C11.1752 12.5322 12.6513 12.8928 13.9806 13.5834C15.31 14.274 16.4537 15.2744 17.315 16.5" stroke="#D9D9D9" stroke-width="1.5" stroke-linecap="round" stroke-linejoin="round"/>
<path d="M18.3229 12.5326C19.8211 12.5317 21.2974 12.8918 22.6269 13.5824C23.9564 14.273 25.1 15.2738 25.9607 16.5" stroke="#D9D9D9" stroke-width="1.5" stroke-linecap="round" stroke-linejoin="round"/>
</svg>
